<?xml version="1.0" standalone="no"?><!DOCTYPE svg PUBLIC "-//W3C//DTD SVG 1.1//EN" "http://www.w3.org/Graphics/SVG/1.1/DTD/svg11.dtd"><svg t="1586415882538" class="icon" viewBox="0 0 1024 1024" version="1.1" xmlns="http://www.w3.org/2000/svg" p-id="25247" xmlns:xlink="http://www.w3.org/1999/xlink" width="128" height="128"><defs><style type="text/css"></style></defs><path d="M308.330798 972.988466v-9.674601c6.407853-0.628221 12.564417-1.256442 18.469693-1.759018v-7.413007c-5.779632 0.502577-11.936196 1.005153-18.469693 1.507731v-9.92589h19.60049v-7.413006h-19.60049v-8.292515h-8.292516v8.292515h-14.574724c3.141104-4.146258 6.156564-8.920736 8.920736-14.197792h34.426504v-8.041227h-30.657178c1.005153-2.261595 1.884663-4.52319 2.764171-6.784785l-9.04638-1.50773c-1.005153 2.764172-2.135951 5.528344-3.266748 8.292515h-17.46454v8.041227h13.443926c-3.01546 5.653988-6.407853 10.428466-9.925889 14.44908l2.010306 7.161718h23.369816v10.428466c-8.543804 0.502577-17.715828 0.879509-27.264785 1.382086l1.130797 8.041227c9.04638-0.502577 17.841472-1.130798 26.133988-1.633374v9.04638h8.292516z m25.882699 0.376933c5.402699-7.789939 8.795092-16.961963 10.177178-27.516074h16.333742v27.264785h8.669448v-27.264785h13.318282v-7.915583h-37.693251v-13.066994c13.569571-1.50773 24.877546-4.397546 34.175214-8.418159l-5.779631-6.784785c-8.795092 4.020613-21.108221 6.784785-36.688099 8.292515v19.726135c-0.251288 11.307975-3.266748 20.982577-8.795092 29.149448l6.282209 6.533497zM295.515092 1024v-4.900123H359.342331v4.900123h9.297669v-47.242209H286.217423V1024h9.297669z m63.827239-29.777669H295.515092v-9.800245H359.342331v9.800245z m0 17.087608H295.515092v-9.800246H359.342331v9.800246z m41.839509 12.313128c17.46454-7.53865 30.028957-18.218405 37.818896-31.787975 4.271902-8.041227 7.413006-17.46454 9.423313-28.395583H458.601227v45.734479c0 8.543804 4.020613 12.815706 12.313129 12.815705h20.354356c5.277055 0 9.04638-1.130798 11.433619-3.392392 2.764172-2.764172 4.648834-10.177178 5.653988-22.490307l-8.543804-2.764172c-0.628221 9.800245-1.759018 15.579877-3.518036 17.590184-1.382086 1.633374-3.643681 2.512883-6.659142 2.512884H473.678528c-4.020613 0-6.03092-2.135951-6.030921-6.156565v-43.849816h38.949694v-8.669448H449.806135c0.879509-6.784785 1.382086-14.197791 1.633374-21.98773v-8.418159h44.980614v-8.795092H406.207607v8.795092h36.059878v8.418159c-0.125644 7.789939-0.628221 15.202945-1.633375 21.98773h-42.844662v8.669448h41.336932c-1.633374 7.915583-3.894969 15.077301-6.910429 21.359509-6.784785 12.815706-18.720982 22.992883-36.059877 30.782822l5.025766 8.041227z m230.305767 0.376933l4.900123-7.413006c-9.04638-6.156564-16.710675-14.826012-23.244172-26.133988 7.036074-14.826012 10.931043-32.793129 11.559264-53.775705h8.166871v-8.669448h-33.170061c1.005153-5.528344 2.010307-11.559264 2.764172-17.967117l-8.795092-1.50773c-2.512883 23.872393-7.53865 42.844663-14.951657 56.91681l5.653988 6.910429c2.638528-4.52319 5.151411-9.674601 7.413006-15.454233 3.392393 12.564417 7.53865 23.621104 12.438773 33.295706-5.779632 10.679755-13.443926 19.349202-23.244172 26.133988l4.648835 7.53865c9.423313-6.784785 17.213252-15.202945 23.244171-25.254479 6.282209 10.55411 13.820859 19.097914 22.615951 25.380123z m-105.918036-57.042454c10.805399-7.287362 18.344049-15.831166 22.490306-25.757055v23.872392h8.41816v-16.333742c4.52319 3.01546 9.92589 7.036074 16.208098 12.061841l4.648834-7.036074a292.75092 292.75092 0 0 0-20.856932-11.559264v-1.382086h22.867239v-7.915583h-22.867239v-23.998036h-8.41816v23.998036h-24.500613v7.915583h17.841472c-3.769325 6.910429-10.55411 13.192638-20.228711 18.846626l4.397546 7.287362z m42.719018-36.939386c4.020613-5.277055 7.161718-10.679755 9.674601-16.208099l-6.533497-3.01546c-2.261595 5.277055-5.528344 10.55411-9.548957 15.95681l6.407853 3.266749z m-33.798282-0.125645l6.533497-3.01546c-2.261595-5.528344-4.774479-10.805399-7.789939-15.705521l-7.161718 2.387239c3.01546 4.774479 5.779632 10.177178 8.41816 16.333742z m73.878773 51.262822c-5.025767-10.55411-9.04638-23.244172-12.187485-37.944539l1.633374-6.533497h18.595338c-0.502577 16.961963-3.141104 31.787975-8.041227 44.478036z m-83.679019 42.46773c12.564417-3.518037 22.992883-8.166871 31.285399-13.946503 7.413006 3.266748 13.820859 6.659141 19.349203 9.92589l4.900122-7.036074c-5.528344-3.01546-11.307975-5.779632-17.338895-8.543803 6.533497-6.03092 11.182331-13.192638 13.946503-21.485154v-7.413006h-26.259632c0.753865-2.261595 1.633374-4.52319 2.512883-6.910429l-8.418159-1.005154c-0.879509 2.512883-1.884663 5.151411-3.01546 7.915583H523.307975v7.915583h14.826013c-2.512883 5.025767-5.402699 10.177178-8.669448 15.705521 6.156564 2.261595 11.936196 4.648834 17.46454 7.036074-7.287362 4.146258-16.208098 7.53865-26.51092 10.302822l4.271901 7.53865z m29.903313-23.118527c-4.52319-1.884663-9.297669-3.643681-14.323435-5.4027 2.512883-3.769325 4.774479-7.789939 6.784785-12.06184h21.610797c-3.01546 6.533497-7.789939 12.438773-14.072147 17.46454z m106.797546 22.364662c7.036074 0 10.55411-3.769325 10.554111-11.056687v-36.688098c3.894969-1.759018 7.789939-3.518037 11.684908-5.528343v-8.920737c-3.769325 2.010307-7.664294 3.894969-11.684908 5.653988v-24.751902h12.06184v-8.669448h-12.06184v-23.746748h-8.795092v23.746748h-15.077301v8.669448h15.077301v28.395583c-5.528344 2.010307-11.307975 3.769325-17.087608 5.151411l2.261595 8.795092c4.900123-1.50773 9.800245-3.266748 14.826013-5.151411v30.782822c0 3.518037-1.633374 5.402699-4.774479 5.4027-3.01546 0-6.282209-0.251288-9.548957-0.628221l1.884663 8.543803h10.679754z m50.634601 1.130798v-6.156564h34.049571v6.156564h8.41816v-41.211288h-21.108221v-15.454233h26.887852v-8.166872h-26.887852v-14.826012h23.621104v-30.531534H690.791656v39.326626c-0.125644 26.385276-4.648834 47.996074-13.56957 64.581104l7.036074 6.282209c8.292515-16.333742 13.192638-35.180368 14.700368-56.665521h25.631411v15.454233H703.607362V1024h8.418159z m36.185522-87.825276h-48.624295v-13.946503h48.624295v13.946503z m-23.621104 22.992883h-25.128835l0.125644-6.03092v-8.795092h25.003191v14.826012z m21.485153 50.634602h-34.049571v-18.97227h34.049571v18.97227z" fill="#8E8E8E" opacity=".85" p-id="25248"></path><path d="M890.195239 379.866307c0 208.820613-169.230135 378.113571-377.981644 378.11357-208.757791 0-377.987926-169.286675-377.987926-378.11357C134.225669 171.045693 303.455804 1.759018 512.213595 1.759018 720.965104 1.759018 890.188957 171.039411 890.188957 379.866307" fill="#CCD7EE" p-id="25249"></path><path d="M471.925791 582.593178l78.628123 0.628221s90.413546 86.392933-43.749301 209.718969c0 0-131.72535-131.712785-34.878822-210.34719" fill="#FF7946" p-id="25250"></path><path d="M575.814675 600.390675H437.593521c-6.062331 0-10.497571-5.71681-8.996122-11.590675l18.067632-70.580613h120.06557l18.073914 70.580613a9.285104 9.285104 0 0 1-8.98984 11.590675" fill="#253369" p-id="25251"></path><path d="M345.779043 512.043975L506.697816 261.968098l160.931337 250.088442c6.747092 10.491288-0.778994 24.280736-13.249178 24.280736H359.028221c-12.470184 0-19.99627-13.79573-13.249178-24.280736" fill="#597EF7" p-id="25252"></path><path d="M506.295755 65.806135l-0.050258-0.025129v0.043976c-3.103411 1.551706-91.104589 68.55146-91.104589 113.814773 0 96.08638 0.810405 356.691239 0.810405 356.691239h182.309693s-0.816687-260.604859-0.816687-356.691239c0-45.263313-91.129718-113.839902-91.154847-113.83362" fill="#FFFFFF" p-id="25253"></path><path d="M535.193914 193.115092a40.319215 40.319215 0 0 1 0 57.004761 40.287804 40.287804 0 0 1-56.979632 0 40.319215 40.319215 0 0 1 0-57.004761 40.275239 40.275239 0 0 1 56.979632 0" fill="#253369" p-id="25254"></path><path d="M474.181104 771.643681c0 52.569521-42.599656 95.181742-95.150331 95.181742-52.550675 0-95.150331-42.612221-95.150331-95.17546 0-52.575804 42.593374-95.188025 95.150331-95.188024 52.550675 0 95.150331 42.612221 95.150331 95.181742" fill="#E4EBF7" p-id="25255"></path><path d="M604.405006 799.071804c0 52.563239-42.599656 95.17546-95.150331 95.17546-52.550675 0-95.150331-42.612221-95.150331-95.17546 0-52.569521 42.599656-95.181742 95.150331-95.181743 52.550675 0 95.150331 42.612221 95.150331 95.17546" fill="#E4EBF7" p-id="25256"></path><path d="M891.175264 625.12373c0 59.61816-48.310184 107.940908-107.896933 107.940908-59.599313 0-107.915779-48.322748-107.915779-107.940908 0-59.61816 48.316466-107.940908 107.915779-107.940908 59.593031 0 107.896933 48.329031 107.896933 107.940908" fill="#E4EBF7" p-id="25257"></path><path d="M773.880147 335.300319a42.78184 42.78184 0 1 1-85.563681 0 42.78184 42.78184 0 1 1 85.563681 0" fill="#FFFFFF" p-id="25258"></path><path d="M267.615804 412.313914a24.173939 24.173939 0 0 1-48.335313 0 24.173939 24.173939 0 1 1 48.335313 0" fill="#F1F2F6" p-id="25259"></path><path d="M365.900957 659.009963c0 60.811779-49.290209 110.114552-110.083141 110.114552s-110.076859-49.302773-110.076859-110.114552 49.283926-110.114552 110.076859-110.114552 110.083141 49.302773 110.083141 110.114552" fill="#E4EBF7" p-id="25260"></path><path d="M676.00962 851.402601c-65.730748 0-119.029006-53.310822-119.029007-119.079264 0-65.76216 53.298258-119.079264 119.029007-119.079263 65.743313 0 119.035288 53.317104 119.035288 119.079263 0 65.768442-53.291975 119.079264-119.035288 119.079264z" fill="#E4EBF7" p-id="25261"></path></svg>