<?xml version="1.0" standalone="no"?><!DOCTYPE svg PUBLIC "-//W3C//DTD SVG 1.1//EN" "http://www.w3.org/Graphics/SVG/1.1/DTD/svg11.dtd"><svg t="1566970696422" class="icon" viewBox="0 0 1024 1024" version="1.1" xmlns="http://www.w3.org/2000/svg" p-id="6656" xmlns:xlink="http://www.w3.org/1999/xlink" width="200" height="200"><defs><style type="text/css"></style></defs><path d="M926.208 171.008H92.672C41.472 171.008 0 212.48 0 263.68V819.2c0 51.2 41.472 92.672 92.672 92.672h833.536c51.2 0 92.672-41.472 92.672-92.672V263.68c0-51.2-41.472-92.672-92.672-92.672M92.672 217.6h833.536c5.632 0 10.752 1.024 15.36 3.072l-400.896 400.896c-8.192 8.192-19.456 12.8-31.232 12.8s-23.04-4.608-31.232-12.8L77.312 220.16c4.608-1.536 9.728-2.56 15.36-2.56M46.08 819.712V263.68c0-2.56 0.512-5.632 1.024-8.192L332.8 541.696 47.104 827.392c-0.512-2.56-1.024-5.12-1.024-7.68m880.128 46.08H92.672c-5.632 0-10.752-1.024-15.36-3.072l288.768-288.768L445.44 653.824c17.92 17.92 40.96 26.624 64 26.624s46.592-8.704 64-26.624l79.36-79.36 288.768 288.768c-4.608 1.536-9.728 2.56-15.36 2.56m46.592-46.08c0 2.56-0.512 5.632-1.024 8.192L686.08 541.696 971.776 256c0.512 2.56 1.024 5.12 1.024 8.192v555.52z" p-id="6657"></path></svg>