<?xml version="1.0" standalone="no"?><!DOCTYPE svg PUBLIC "-//W3C//DTD SVG 1.1//EN" "http://www.w3.org/Graphics/SVG/1.1/DTD/svg11.dtd"><svg t="1567583166952" class="icon" viewBox="0 0 1493 1024" version="1.1" xmlns="http://www.w3.org/2000/svg" p-id="4274" xmlns:xlink="http://www.w3.org/1999/xlink" width="186.625" height="128"><defs><style type="text/css"></style></defs><path d="M1021.680771 105.268061c-7.167594 0-12.031318 0.853285-17.065699 2.047884v0.810621h0.853285c3.41314 6.484966 9.130149 11.220697 13.35391 17.023036 3.370476 6.655623 6.22898 13.311246 9.599456 19.924204l0.853285-0.938614c5.845002-4.095768 8.703507-10.708727 8.703507-20.734825-2.474526-2.943833-2.858505-5.845002-4.949053-8.746171-2.517191-4.181096-7.850222-6.22898-11.220698-9.514127l-0.127993 0.127992zM359.36097 927.152155H301.636241c-1.663906-91.728135-7.252922-183.456271-16.852379-274.7151h-0.469306l-87.845689 274.757764H152.567355l-87.163061-274.757764h-0.639964c-6.82628 91.429486-10.879384 183.029628-12.116647 274.757764H0c3.41314-122.489059 11.94599-237.383882 25.555885-344.513811h71.59061l83.152621 253.169654h0.511971l83.877914-253.169654h68.17747c15.103144 125.518221 23.891979 240.455708 26.665156 344.471147h-0.170657z m250.140492-254.150932c-23.508001 127.395448-54.52491 220.104861-92.880071 277.82959-30.035631 44.58414-62.929767 66.854878-98.597079 66.854878-9.556792 0-21.204132-2.858505-35.24067-8.618178v-30.760924c6.82628 1.066606 14.932487 1.621241 24.019972 1.621242 16.681721 0 30.078296-4.693067 40.275052-13.823217 12.287304-11.220697 18.388291-23.806651 18.388291-37.672532 0-9.684785-4.778396-29.310339-14.335188-58.833999l-63.143088-196.59686h56.658122l45.309433 147.021002c10.23942 33.363443 14.505845 56.700787 12.75661 69.969369 24.915921-66.300243 42.237607-138.744138 52.00772-216.990371h54.780896z m767.615168 254.150932h-163.830716v-344.471147h55.164874v302.105547h108.665842v42.3656z m-206.793615 8.404857l-63.271081-31.144902c5.631681-4.693067 11.05004-9.812777 15.8711-15.572451 27.00647-31.486216 40.36038-78.331561 40.36038-140.365379 0-113.956209-44.712133-171.040974-134.179063-171.040975-43.858848 0-78.075576 14.505845-102.778176 43.432206-26.793148 31.656873-40.232387 78.246233-40.232387 139.853408 0 60.583234 11.817997 105.039381 35.752641 133.325778 21.758767 25.513221 54.610239 38.312496 98.554415 38.312496 16.4684 0 31.571544-2.090548 45.18144-6.143652l82.512657 48.125273 22.441395-38.781802h-0.213321z m-205.001717-77.350284c-14.036538-22.441395-20.990811-58.578014-20.99081-108.153871 0-86.779083 26.40917-130.168624 79.099518-130.168624 27.603769 0 47.954616 10.367413 60.839219 31.144902 13.951209 22.526723 20.905482 58.279364 20.905482 107.300586 0 87.461711-26.366506 131.320559-79.056854 131.320559-27.731762 0-47.954616-10.367413-60.924547-31.144902l0.127992-0.29865z m-103.247482-26.451834c0 29.267675-10.708727 53.330311-32.168844 71.974588-21.417453 18.686941-50.0025 28.030412-86.181783 28.030412-33.790085 0-66.257579-10.666062-97.957116-32.083516l14.76183-29.651653c27.305119 13.737888 51.879727 20.47884 74.107801 20.47884 20.692161 0 36.94724-4.565075 48.765237-13.737888a46.930674 46.930674 0 0 0 18.686941-38.312496c0-20.564168-14.335188-37.971182-40.36038-52.647683-24.147965-13.225917-72.443895-40.915015-72.443895-40.915015-26.281177-19.113584-39.336438-39.635087-39.336437-73.29718 0-28.030412 9.770113-50.471807 29.267674-67.622835 19.625555-17.279021 44.840126-25.854535 75.942364-25.854535 31.912858 0 61.05254 8.490186 87.205725 25.555886l-13.225917 29.651653a169.803711 169.803711 0 0 0-66.300243-14.335188c-17.620335 0-31.23023 4.266425-40.701694 12.841939a42.664249 42.664249 0 0 0-15.444458 32.63815c0 20.47884 14.548509 37.971182 41.46965 52.946333 24.446615 13.396574 73.894479 41.7683 73.894479 41.7683 27.00647 18.985591 40.403044 39.251109 40.403044 72.742545l-0.426642-0.213321z" p-id="4275"></path><path d="M1445.208772 466.207608c-33.107457-0.853285-58.791335 2.517191-80.294117 11.775333-6.186316 2.474526-16.084422 2.474526-16.937707 10.410077 3.41314 3.327811 3.882447 8.746171 6.82628 13.396574 4.906389 8.362193 13.481903 19.540226 21.374789 25.427892 8.703507 6.868944 17.364349 13.481903 26.451834 19.369569 16.084422 9.983434 34.34472 15.913765 50.130493 26.025192 8.959492 5.845002 18.132306 13.268581 27.262455 19.540226 4.479746 3.11449 7.423579 8.746171 13.225917 10.751391v-1.279927c-2.858505-3.754454-3.71179-9.172814-6.484966-13.35391-4.181096-4.181096-8.319529-7.93555-12.372632-12.073983a200.436642 200.436642 0 0 0-43.048227-42.152278c-13.225917-9.130149-42.237607-21.88676-47.655967-37.203225l-0.81062-0.853285c9.044821-0.853285 19.796212-4.138432 28.499718-6.655623 14.036538-3.754454 26.878477-2.943833 41.46965-6.612958 6.52763-1.70657 13.183253-3.754454 19.796212-5.887667v-3.754454c-7.423579-7.466244-13.012596-17.662999-20.692161-24.659936a548.662242 548.662242 0 0 0-68.305463-51.41042c-13.012596-8.404857-29.480996-13.780552-43.17622-20.905482-4.949053-2.474526-13.225917-3.754454-16.084422-7.93555-7.423579-9.130149-11.775333-21.246796-17.023035-32.12618a1107.734562 1107.734562 0 0 1-33.875414-72.657216c-7.423579-16.383072-11.94599-32.680815-21.033475-47.655966-42.664249-71.078639-88.954959-114.126866-160.076262-156.23648-15.273801-8.746171-33.619428-12.500625-52.988997-17.151028-10.324748-0.469307-20.649497-1.237263-30.931581-1.70657-6.82628-2.901169-13.396574-10.836719-19.198912-14.633837-23.508001-15.017816-84.432549-47.485309-101.754234-4.522411-11.135369 27.134462 16.511064 53.884947 26.110521 67.622835 7.12493 9.556792 16.084422 20.47884 21.033474 31.23023 2.901169 7.252922 3.71179 14.719166 6.612959 22.270738 6.570294 18.345627 12.799275 38.824467 21.502782 56.060824 4.52241 8.746171 9.471463 17.918985 15.273801 25.81187 3.370476 4.52241 9.044821 6.655623 10.367412 14.164531-5.845002 8.53285-6.186316 20.905482-9.556792 31.23023-14.847159 47.314652-9.044821 105.807338 12.031319 140.621365 6.612959 10.367413 22.398731 33.363443 43.517534 24.574607 18.558948-7.508908 14.505845-31.272895 19.796211-52.22104 1.237263-4.991717 0.426642-8.276864 2.986498-11.64734v0.938613c5.802338 11.732668 11.604676 22.910702 16.937706 34.64337 12.75661 20.47884 35.027348 41.7683 53.671626 55.932831 9.898106 7.508908 17.748328 20.47884 30.163624 25.171907v-1.279928h-0.938614c-2.687848-3.626461-6.186316-5.375695-9.556791-8.319528a214.430516 214.430516 0 0 1-21.630775-25.00125 548.619578 548.619578 0 0 1-46.248046-76.11302c-6.82628-13.097924-12.500625-27.219791-17.961648-40.189723-2.474526-4.991717-2.474526-12.457961-6.612959-14.975151-6.186316 9.130149-15.316465 17.0657-19.838876 28.286397-7.850222 18.004313-8.660843 40.104394-11.604676 63.143088-1.70657 0.426642-0.853285 0-1.70657 0.853285-13.225917-3.242483-17.748328-17.108364-22.69738-28.755704-12.372632-29.651653-14.420516-77.350283-3.71179-111.524347 2.901169-8.746171 15.273801-36.34994 10.324749-44.754797-2.559855-7.93555-10.751391-12.500625-15.273802-18.942926a155.425859 155.425859 0 0 1-14.847158-26.665156c-9.898106-23.380008-14.847159-49.234543-25.59855-72.614552-4.991717-10.794055-13.65256-22.100081-20.69216-32.040851-7.892886-11.263362-16.553729-19.198912-22.782709-32.510158-2.047884-4.565075-4.991717-12.116647-1.70657-17.108364 0.853285-3.41314 2.602519-4.693067 5.845002-5.63168 5.461024-4.479746 20.734825 1.365256 26.11052 3.839782 15.273801 6.271645 28.158404 12.159311 40.957679 20.905482 5.845002 4.138432 12.116647 12.073982 19.540226 14.079202h8.660843c13.225917 2.986497 28.158404 0.938613 40.531036 4.607739 21.972088 7.12493 41.810964 17.492342 59.559292 28.755704a370.624331 370.624331 0 0 1 129.059353 142.839906c4.949053 9.64212 7.12493 18.430956 11.64734 28.41439 8.660843 20.649497 19.369569 41.426986 28.158405 61.393854 8.660843 19.668219 17.023035 39.720416 29.438331 56.060823 6.22898 8.746171 31.102238 13.268581 42.237607 17.833656 8.2342 3.754454 21.033475 7.210258 28.457054 11.775333 14.249859 8.746171 28.11574 18.77227 41.46965 28.371726 6.82628 4.735732 27.433112 15.188473 28.670376 23.593329z" p-id="4276"></path></svg>