<svg t="1567661128705" class="icon" viewBox="0 0 1024 1024" version="1.1" xmlns="http://www.w3.org/2000/svg" p-id="8746" data-spm-anchor-id="a313x.7781069.0.i56" width="128" height="128"><path d="M512 0C230.4 0 0 230.4 0 512s230.4 512 512 512 512-230.4 512-512S793.6 0 512 0z m312.32 824.32c-40.96 40.96-87.04 71.68-138.24 92.16-56.32 20.48-112.64 35.84-168.96 35.84s-117.76-10.24-168.96-35.84c-51.2-20.48-97.28-56.32-138.24-92.16-40.96-40.96-71.68-87.04-92.16-138.24-20.48-56.32-35.84-112.64-35.84-168.96s10.24-117.76 35.84-168.96c20.48-51.2 56.32-97.28 92.16-138.24 40.96-40.96 87.04-71.68 138.24-92.16 46.08-35.84 102.4-46.08 163.84-46.08s117.76 10.24 168.96 35.84c51.2 20.48 97.28 56.32 138.24 92.16 40.96 40.96 71.68 87.04 92.16 138.24 20.48 56.32 35.84 112.64 35.84 168.96s-10.24 117.76-35.84 168.96c-15.36 61.44-46.08 107.52-87.04 148.48z" p-id="8747" data-spm-anchor-id="a313x.7781069.0.i55" class="selected" fill="#707070"></path><path d="M512 512z m-230.4 0c0 128 102.4 230.4 230.4 230.4s230.4-102.4 230.4-230.4-102.4-230.4-230.4-230.4-230.4 102.4-230.4 230.4" p-id="8748" data-spm-anchor-id="a313x.7781069.0.i54" class="" fill="#13227a"></path></svg>