<?xml version="1.0" standalone="no"?><!DOCTYPE svg PUBLIC "-//W3C//DTD SVG 1.1//EN" "http://www.w3.org/Graphics/SVG/1.1/DTD/svg11.dtd"><svg t="1563517496811" class="icon" viewBox="0 0 1194 1024" version="1.1" xmlns="http://www.w3.org/2000/svg" p-id="6357" xmlns:xlink="http://www.w3.org/1999/xlink" width="233.203125" height="200"><defs><style type="text/css"></style></defs><path d="M1192.96 849.92c0-39.253333-34.133333-71.68-78.506667-76.8-1.706667-29.013333-30.72-52.906667-64.853333-52.906667-35.84 0-66.56 25.6-66.56 54.613334 0 18.773333 11.946667 35.84 29.013333 46.08v1.706666c-105.813333-22.186667-256-35.84-423.253333-35.84-116.053333 0-225.28 6.826667-315.733333 18.773334-3.413333-40.96-44.373333-73.386667-93.866667-73.386667-47.786667 0-87.04 30.72-92.16 68.266667-23.893333 8.533333-39.253333 27.306667-39.253333 51.2v8.533333C22.186667 873.813333 8.533333 887.466667 8.533333 901.12c0 63.146667 259.413333 114.346667 580.266667 114.346667 317.44 0 576.853333-49.493333 580.266667-112.64 15.36-15.36 23.893333-34.133333 23.893333-52.906667" fill="#F0EFEE" p-id="6358"></path><path d="M1085.44 880.64c0 30.72-211.626667 54.613333-471.04 54.613333-261.12 0-471.04-23.893333-471.04-54.613333 0-30.72 211.626667-54.613333 471.04-54.613333 259.413333 0 471.04 23.893333 471.04 54.613333" fill="#DFDFDF" p-id="6359"></path><path d="M832.853333 735.573333h-27.306666v-6.826666H836.266667v6.826666h-3.413334z m10.24 0v-6.826666c10.24 0 20.48 0 30.72-1.706667v6.826667c-10.24 1.706667-20.48 1.706667-30.72 1.706666z m-44.373333 0c-10.24 0-20.48 0-30.72-1.706666v-6.826667c10.24 0 20.48 1.706667 30.72 1.706667v6.826666z m81.92 0v-6.826666c10.24 0 20.48-1.706667 30.72-1.706667v6.826667c-8.533333 0-18.773333 0-30.72 1.706666z m-121.173333-1.706666c-10.24 0-20.48-1.706667-30.72-1.706667v-6.826667c10.24 0 20.48 1.706667 30.72 1.706667v6.826667z m160.426666-1.706667l-1.706666-6.826667c10.24-1.706667 20.48-3.413333 29.013333-5.12l1.706667 6.826667c-8.533333 1.706667-18.773333 3.413333-29.013334 5.12z m-197.973333-1.706667c-10.24-1.706667-20.48-1.706667-30.72-3.413333v-6.826667c10.24 1.706667 20.48 1.706667 30.72 3.413334v6.826666z m-37.546667-3.413333c-10.24-1.706667-20.48-1.706667-30.72-3.413333l1.706667-6.826667c10.24 1.706667 20.48 1.706667 30.72 3.413333l-1.706667 6.826667z m273.066667-1.706667l-1.706667-6.826666c10.24-1.706667 18.773333-5.12 29.013334-6.826667l1.706666 6.826667c-8.533333 1.706667-18.773333 5.12-29.013333 6.826666z m-310.613333-1.706666c-10.24-1.706667-20.48-3.413333-30.72-3.413334l1.706666-6.826666c10.24 1.706667 20.48 3.413333 30.72 3.413333l-1.706666 6.826667z m-37.546667-5.12l-30.72-5.12 1.706667-6.826667c10.24 1.706667 20.48 3.413333 29.013333 5.12v6.826667z m384-3.413334l-1.706667-6.826666c8.533333-3.413333 18.773333-6.826667 27.306667-11.946667l3.413333 6.826667c-8.533333 3.413333-18.773333 8.533333-29.013333 11.946666z m-421.546667-3.413333l-30.72-5.12 1.706667-6.826667c10.24 1.706667 20.48 3.413333 29.013333 5.12v6.826667z m-35.84-5.12c-10.24-1.706667-20.48-3.413333-29.013333-5.12l1.706667-6.826667c10.24 1.706667 20.48 3.413333 29.013333 5.12l-1.706667 6.826667z m-37.546666-8.533333c-10.24-1.706667-20.48-3.413333-29.013334-6.826667l1.706667-6.826667c10.24 1.706667 20.48 3.413333 29.013333 5.12l-1.706666 8.533334z m529.066666 0l-3.413333-6.826667c8.533333-6.826667 15.36-13.653333 20.48-20.48l6.826667 3.413333c-6.826667 8.533333-13.653333 17.066667-23.893334 23.893334zM460.8 691.2c-10.24-1.706667-20.48-5.12-29.013333-6.826667l1.706666-6.826666c10.24 1.706667 18.773333 5.12 29.013334 6.826666l-1.706667 6.826667z m-37.546667-8.533333c-10.24-1.706667-20.48-5.12-29.013333-6.826667l1.706667-6.826667c10.24 1.706667 18.773333 5.12 29.013333 6.826667l-1.706667 6.826667z m-35.84-8.533334c-10.24-1.706667-20.48-5.12-29.013333-6.826666l1.706667-6.826667c10.24 1.706667 18.773333 5.12 29.013333 6.826667l-1.706667 6.826666z m665.6-6.826666l-6.826666-1.706667c3.413333-6.826667 5.12-15.36 5.12-23.893333v-3.413334h6.826666v5.12c1.706667 6.826667 0 17.066667-5.12 23.893334z m-703.146666-3.413334c-10.24-3.413333-20.48-5.12-29.013334-8.533333l3.413334-6.826667c10.24 3.413333 18.773333 5.12 29.013333 8.533334l-3.413333 6.826666z m-35.84-10.24c-10.24-3.413333-18.773333-5.12-29.013334-8.533333l1.706667-6.826667c10.24 3.413333 18.773333 5.12 29.013333 8.533334l-1.706666 6.826666z m-35.84-10.24c-10.24-3.413333-18.773333-6.826667-29.013334-8.533333l1.706667-6.826667c8.533333 3.413333 18.773333 6.826667 29.013333 8.533334l-1.706666 6.826666z m-35.84-11.946666c-10.24-3.413333-18.773333-6.826667-29.013334-10.24l1.706667-6.826667c8.533333 3.413333 18.773333 6.826667 29.013333 10.24l-1.706666 6.826667z m808.96-1.706667c-1.706667-8.533333-5.12-18.773333-8.533334-27.306667l6.826667-3.413333c5.12 10.24 8.533333 20.48 8.533333 29.013333l-6.826666 1.706667z m-844.8-10.24c-10.24-3.413333-18.773333-6.826667-29.013334-10.24l3.413334-6.826667c8.533333 3.413333 18.773333 6.826667 27.306666 10.24l-1.706666 6.826667z m-35.84-13.653333c-8.533333-3.413333-18.773333-8.533333-27.306667-11.946667l3.413333-6.826667c8.533333 3.413333 17.066667 8.533333 27.306667 11.946667l-3.413333 6.826667z m868.693333-10.24l-15.36-25.6 6.826667-5.12c6.826667 8.533333 11.946667 17.066667 15.36 25.6l-6.826667 5.12z m-20.48-30.72c-5.12-8.533333-11.946667-15.36-18.773333-23.893334l5.12-5.12c6.826667 8.533333 13.653333 15.36 18.773333 23.893334l-5.12 5.12z m-23.893333-29.013334c-6.826667-6.826667-13.653333-13.653333-20.48-22.186666l5.12-5.12c6.826667 6.826667 13.653333 15.36 20.48 22.186666l-5.12 5.12z m-25.6-27.306666c-6.826667-6.826667-13.653333-13.653333-20.48-22.186667l5.12-5.12c6.826667 6.826667 13.653333 13.653333 20.48 22.186667l-5.12 5.12z m-25.6-27.306667c-6.826667-6.826667-13.653333-15.36-20.48-22.186667l5.12-5.12c6.826667 6.826667 13.653333 15.36 20.48 22.186667l-5.12 5.12z m-25.6-27.306667c-6.826667-6.826667-13.653333-15.36-20.48-22.186666l5.12-5.12c6.826667 6.826667 13.653333 15.36 20.48 22.186666l-5.12 5.12z m-25.6-29.013333c-6.826667-6.826667-13.653333-15.36-20.48-22.186667l5.12-5.12c6.826667 6.826667 13.653333 15.36 20.48 22.186667l-5.12 5.12z m-25.6-27.306667c-6.826667-8.533333-13.653333-15.36-18.773334-23.893333l5.12-5.12c5.12 6.826667 11.946667 15.36 18.773334 23.893333l-5.12 5.12z m-23.893334-29.013333c-6.826667-8.533333-11.946667-15.36-18.773333-23.893333l6.826667-5.12c5.12 8.533333 11.946667 15.36 18.773333 23.893333l-6.826667 5.12z m-22.186666-30.72c-6.826667-8.533333-11.946667-17.066667-17.066667-25.6l6.826667-3.413333c5.12 8.533333 10.24 17.066667 17.066666 25.6l-6.826666 3.413333z m-20.48-32.426667l-15.36-25.6 6.826666-3.413333 15.36 25.6-6.826666 3.413333zM779.946667 273.066667c-5.12-8.533333-8.533333-18.773333-13.653334-27.306667l6.826667-3.413333c3.413333 8.533333 6.826667 17.066667 11.946667 27.306666l-5.12 3.413334z m-15.36-34.133334c-3.413333-10.24-6.826667-18.773333-8.533334-29.013333l6.826667-1.706667c1.706667 8.533333 5.12 18.773333 8.533333 29.013334l-6.826666 1.706666z m-8.533334-37.546666c0-5.12-1.706667-11.946667-1.706666-17.066667 0-5.12 0-10.24 1.706666-13.653333l6.826667 1.706666c0 5.12-1.706667 8.533333-1.706667 13.653334 0 5.12 0 10.24 1.706667 15.36h-6.826667z m8.533334-37.546667l-6.826667-1.706667c1.706667-10.24 6.826667-20.48 13.653333-29.013333l5.12 5.12c-6.826667 6.826667-10.24 17.066667-11.946666 25.6z m15.36-30.72l-5.12-5.12c6.826667-6.826667 15.36-13.653333 23.893333-18.773333l3.413333 6.826666c-8.533333 3.413333-15.36 10.24-22.186666 17.066667z m30.72-22.186667l-3.413334-6.826666c8.533333-5.12 18.773333-8.533333 29.013334-10.24l1.706666 8.533333c-10.24 1.706667-20.48 5.12-27.306666 8.533333z m34.133333-10.24l-1.706667-6.826666 30.72-5.12 1.706667 6.826666c-11.946667 0-22.186667 1.706667-30.72 5.12z m117.76-6.826666H955.733333v-6.826667h6.826667v6.826667z m-80.213333 0v-6.826667c8.533333-1.706667 18.773333-1.706667 29.013333-1.706667v6.826667c-10.24 0-20.48 1.706667-29.013333 1.706667z m66.56 0c-10.24 0-20.48-1.706667-30.72-1.706667V85.333333h30.72v8.533334z m0 0" fill="#D9D9D9" p-id="6360"></path><path d="M479.573333 742.4h175.786667v64.853333H479.573333z" fill="#FFFFFF" p-id="6361"></path><path d="M252.586667 394.24v-3.413333 3.413333l1.706666 34.133333-1.706666-34.133333z m13.653333 35.84h614.4l1.706667-34.133333c0-8.533333-5.12-13.653333-11.946667-17.066667-1.706667 0-3.413333-1.706667-5.12-1.706667H527.36v-46.08c0-10.24-6.826667-17.066667-15.36-20.48-1.706667-1.706667-5.12-1.706667-6.826667-1.706666h-160.426666c-11.946667 0-20.48 8.533333-20.48 20.48V375.466667h-44.373334c-8.533333 0-17.066667 6.826667-17.066666 17.066666l1.706666 34.133334h1.706667z m0 0" fill="#FDECED" p-id="6362"></path><path d="M252.586667 839.68h1.706666l-46.08-358.4V477.866667v3.413333L256 849.92l1.706667 5.12v1.706667c0 1.706667 0 1.706667 1.706666 3.413333s1.706667 5.12 3.413334 6.826667l1.706666 1.706666 3.413334 3.413334 1.706666 1.706666 1.706667 1.706667 1.706667 1.706667s1.706667 0 1.706666 1.706666c0 0 1.706667 0 1.706667 1.706667l1.706667 1.706667c1.706667 0 1.706667 1.706667 3.413333 1.706666h568.32c1.706667 0 1.706667 0 3.413333-1.706666h1.706667c1.706667 0 3.413333-1.706667 3.413333-1.706667l1.706667-1.706667s1.706667 0 1.706667-1.706666c0 0 1.706667 0 1.706666-1.706667l1.706667-1.706667 1.706667-1.706666 1.706666-1.706667 3.413334-3.413333 1.706666-1.706667v-1.706667l1.706667-1.706666c0-1.706667 1.706667-1.706667 1.706667-3.413334s1.706667-1.706667 1.706666-3.413333 0-1.706667 1.706667-3.413333v-3.413334l1.706667-6.826666 29.013333-218.453334 18.773333-143.36v-10.24-6.826666-1.706667-1.706667c0-1.706667-1.706667-3.413333-1.706666-5.12v-1.706666c0-1.706667-1.706667-1.706667-1.706667-3.413334s-1.706667-1.706667-1.706667-3.413333l-1.706666-1.706667-1.706667-1.706666c-3.413333-3.413333-6.826667-5.12-10.24-6.826667-1.706667 0-3.413333-1.706667-5.12-1.706667H887.466667l1.706666-34.133333c0-6.826667-3.413333-13.653333-8.533333-18.773333-1.706667 0-1.706667-1.706667-3.413333-1.706667h-1.706667l-1.706667-1.706667h-1.706666c-3.413333-1.706667-6.826667-1.706667-10.24-1.706666H534.186667v-35.84c0-17.066667-13.653333-30.72-30.72-30.72h-160.426667c-17.066667 0-30.72 13.653333-30.72 30.72v37.546666h-37.546667-1.706666-1.706667c-1.706667 0-3.413333 1.706667-5.12 1.706667-3.413333 1.706667-5.12 3.413333-6.826667 6.826667l-3.413333-3.413334v1.706667c0 1.706667 0 1.706667-1.706667 3.413333v8.533334l1.706667 34.133333H237.226667c-5.12 1.706667-10.24 3.413333-13.653334 8.533333l-1.706666 1.706667c-1.706667 1.706667-3.413333 3.413333-5.12 6.826667-1.706667 1.706667-3.413333 5.12-3.413334 8.533333l-6.826666 5.12v17.066667l46.08 361.813333z m25.6-460.8h44.373333v-46.08c0-11.946667 10.24-20.48 20.48-20.48h160.426667c1.706667 0 5.12 0 6.826666 1.706667 8.533333 1.706667 15.36 10.24 15.36 20.48v46.08h336.213334c1.706667 0 3.413333 0 5.12 1.706666 6.826667 1.706667 11.946667 8.533333 11.946666 17.066667l-1.706666 34.133333h-614.4v-1.706666h-1.706667l-1.706667-34.133334c1.706667-11.946667 10.24-18.773333 18.773334-18.773333zM221.866667 448.853333c5.12-5.12 11.946667-8.533333 18.773333-8.533333h657.066667c6.826667 0 13.653333 3.413333 18.773333 8.533333 6.826667 8.533333 10.24 18.773333 8.533333 30.72l-47.786666 370.346667c-1.706667 8.533333-5.12 15.36-10.24 20.48-5.12 5.12-13.653333 8.533333-20.48 8.533333H295.253333c-8.533333 0-15.36-3.413333-20.48-8.533333-5.12-5.12-10.24-11.946667-10.24-20.48l-47.786666-370.346667c-3.413333-11.946667-1.706667-23.893333 5.12-30.72z m0 0" fill="#A9B0B5" p-id="6363"></path><path d="M361.813333 740.693333c11.946667 3.413333 22.186667 5.12 34.133334 5.12 39.253333 0 71.68-18.773333 71.68-42.666666 0-17.066667-15.36-30.72-39.253334-37.546667-11.946667-3.413333-22.186667-5.12-34.133333-5.12-39.253333 0-71.68 18.773333-71.68 42.666667 1.706667 17.066667 17.066667 30.72 39.253333 37.546666z m56.32-35.84l-13.653333 13.653334c-3.413333 1.706667-6.826667 1.706667-10.24 0-1.706667-1.706667-1.706667-6.826667 0-8.533334l13.653333-13.653333c3.413333-1.706667 6.826667-1.706667 10.24 0 1.706667 3.413333 1.706667 6.826667 0 8.533333z m-51.2 13.653334c-1.706667-1.706667-1.706667-6.826667 0-10.24l13.653334-13.653334c3.413333-1.706667 6.826667-1.706667 10.24 0 1.706667 1.706667 1.706667 6.826667 0 8.533334l-15.36 15.36c-1.706667 3.413333-6.826667 3.413333-8.533334 0zM696.32 665.6c-1.706667 0-1.706667 0-3.413333 1.706667l-10.24 5.12c-1.706667 1.706667-3.413333 1.706667-5.12 3.413333l-3.413334 3.413333-5.12 5.12-3.413333 3.413334c-3.413333 5.12-3.413333 10.24-3.413333 15.36v3.413333c0 3.413333 1.706667 6.826667 3.413333 10.24 0 0 0 1.706667 1.706667 1.706667l5.12 5.12 3.413333 3.413333c3.413333 1.706667 5.12 3.413333 8.533333 5.12 1.706667 1.706667 3.413333 1.706667 5.12 1.706667 3.413333 1.706667 5.12 1.706667 8.533334 3.413333 22.186667 6.826667 46.08 6.826667 68.266666 0 1.706667 0 3.413333-1.706667 5.12-1.706667 3.413333-1.706667 5.12-1.706667 8.533334-3.413333 1.706667-1.706667 3.413333-1.706667 5.12-3.413333l3.413333-3.413334 5.12-5.12 3.413333-3.413333c1.706667-1.706667 1.706667-1.706667 1.706667-3.413333 1.706667-3.413333 3.413333-8.533333 3.413333-11.946667 0-5.12-1.706667-10.24-3.413333-15.36 0-1.706667-1.706667-1.706667-3.413333-3.413333l-5.12-5.12-3.413334-3.413334c-1.706667-1.706667-3.413333-1.706667-5.12-3.413333l-10.24-5.12c-1.706667 0-1.706667 0-3.413333-1.706667-11.946667-3.413333-23.893333-6.826667-35.84-6.826666-10.24 0-18.773333 1.706667-29.013333 3.413333-1.706667 3.413333-5.12 5.12-6.826667 5.12z m44.373333 29.013333c1.706667-1.706667 3.413333-1.706667 5.12-1.706666 1.706667 0 3.413333 0 5.12 1.706666l13.653334 13.653334c1.706667 1.706667 1.706667 6.826667 0 10.24-1.706667 1.706667-3.413333 1.706667-5.12 1.706666-1.706667 0-3.413333 0-5.12-1.706666l-13.653334-13.653334c-3.413333-3.413333-3.413333-6.826667 0-10.24z m-29.013333 0c1.706667-1.706667 3.413333-1.706667 5.12-1.706666 1.706667 0 3.413333 0 5.12 1.706666l13.653333 13.653334c1.706667 1.706667 1.706667 6.826667 0 10.24-1.706667 1.706667-3.413333 1.706667-5.12 1.706666-1.706667 0-3.413333 0-5.12-1.706666l-13.653333-13.653334c-1.706667-3.413333-1.706667-6.826667 0-10.24z m0 0" fill="#F0EFEF" p-id="6364"></path><path d="M737.28 699.733333c0 1.706667 0 3.413333 1.706667 5.12l13.653333 13.653334c1.706667 1.706667 3.413333 1.706667 5.12 1.706666 3.413333 0 6.826667-3.413333 6.826667-6.826666 0-1.706667 0-3.413333-1.706667-5.12l-13.653333-13.653334c-1.706667-1.706667-3.413333-1.706667-5.12-1.706666-3.413333 0-6.826667 3.413333-6.826667 6.826666z m5.12-1.706666c1.706667-1.706667 3.413333-1.706667 5.12 0l13.653333 13.653333c1.706667 1.706667 1.706667 3.413333 0 5.12-1.706667 1.706667-3.413333 1.706667-5.12 0l-13.653333-13.653333c-1.706667-1.706667-1.706667-5.12 0-5.12z m-32.426667 1.706666c0 1.706667 0 3.413333 1.706667 5.12l13.653333 13.653334c1.706667 1.706667 3.413333 1.706667 5.12 1.706666 3.413333 0 6.826667-3.413333 6.826667-6.826666 0-1.706667 0-3.413333-1.706667-5.12l-13.653333-13.653334c-1.706667-1.706667-3.413333-1.706667-5.12-1.706666-3.413333 0-6.826667 3.413333-6.826667 6.826666z m3.413334-1.706666s1.706667-1.706667 3.413333-1.706667 1.706667 0 3.413333 1.706667l13.653334 13.653333c1.706667 1.706667 1.706667 3.413333 0 5.12-1.706667 1.706667-3.413333 1.706667-5.12 0l-13.653334-13.653333c-1.706667-1.706667-1.706667-5.12-1.706666-5.12z m0 0" fill="#FFFFFF" p-id="6365"></path><path d="M727.04 716.8c1.706667 1.706667 3.413333 1.706667 5.12 0 1.706667-1.706667 1.706667-3.413333 0-5.12l-13.653333-13.653333s-1.706667-1.706667-3.413334-1.706667-3.413333 1.706667-3.413333 3.413333 0 1.706667 1.706667 3.413334l13.653333 13.653333z m29.013333 0c1.706667 1.706667 3.413333 1.706667 5.12 0 1.706667-1.706667 1.706667-3.413333 0-5.12l-13.653333-13.653333c-1.706667-1.706667-3.413333-1.706667-5.12 0-1.706667 1.706667-1.706667 3.413333 0 5.12l13.653333 13.653333z m0 0" fill="#A9B0B5" p-id="6366"></path><path d="M256 430.08l-1.706667-34.133333V392.533333v3.413334l1.706667 34.133333z m0 0" fill="#ECF2FA" p-id="6367"></path><path d="M931.84 448.853333c0 1.706667 1.706667 1.706667 1.706667 3.413334 0-1.706667-1.706667-1.706667-1.706667-3.413334z m5.12 32.426667v-1.706667 1.706667l-17.066667 131.413333 17.066667-131.413333z m-730.453333 0V477.866667v3.413333l46.08 358.4 1.706666 11.946667 1.706667 5.12v-5.12l-49.493333-370.346667z m0 0" fill="#FFFFFF" p-id="6368"></path><path d="M409.6 698.026667l-13.653333 13.653333c-1.706667 1.706667-1.706667 3.413333 0 5.12 1.706667 1.706667 3.413333 1.706667 5.12 0l13.653333-13.653333c1.706667-1.706667 1.706667-3.413333 0-5.12 0-1.706667-3.413333-1.706667-5.12 0z m0 0" fill="#A9B0B5" p-id="6369"></path><path d="M413.013333 694.613333c-1.706667 0-3.413333 0-5.12 1.706667l-13.653333 13.653333c-1.706667 3.413333-1.706667 6.826667 0 10.24 1.706667 1.706667 6.826667 1.706667 8.533333 0l13.653334-13.653333c1.706667-1.706667 1.706667-6.826667 0-10.24 0-1.706667-1.706667-1.706667-3.413334-1.706667z m1.706667 3.413334c1.706667 1.706667 1.706667 3.413333 0 5.12l-13.653333 13.653333c-1.706667 1.706667-3.413333 1.706667-5.12 0-1.706667-1.706667-1.706667-3.413333 0-5.12l13.653333-13.653333c1.706667-1.706667 5.12-1.706667 5.12 0z m0 0" fill="#FFFFFF" p-id="6370"></path><path d="M382.293333 698.026667l-13.653333 13.653333c-1.706667 1.706667-1.706667 3.413333 0 5.12 1.706667 1.706667 3.413333 1.706667 5.12 0l13.653333-13.653333c1.706667-1.706667 1.706667-3.413333 0-5.12-1.706667-1.706667-3.413333-1.706667-5.12 0z m0 0" fill="#A9B0B5" p-id="6371"></path><path d="M375.466667 718.506667l13.653333-13.653334c1.706667-3.413333 1.706667-6.826667 0-10.24-1.706667-1.706667-6.826667-1.706667-8.533333 0l-13.653334 13.653334c-1.706667 3.413333-1.706667 6.826667 0 10.24 3.413333 3.413333 6.826667 3.413333 8.533334 0z m11.946666-20.48c1.706667 1.706667 1.706667 3.413333 0 5.12l-13.653333 13.653333c-1.706667 1.706667-3.413333 1.706667-5.12 0-1.706667-1.706667-1.706667-3.413333 0-5.12l13.653333-13.653333c1.706667-1.706667 3.413333-1.706667 5.12 0z m0 0" fill="#FFFFFF" p-id="6372"></path><path d="M820.906667 145.066667c-5.12 0-10.24-5.12-10.24-10.24s5.12-10.24 10.24-10.24 10.24 5.12 10.24 10.24-5.12 10.24-10.24 10.24z m0-18.773334c-3.413333 0-6.826667 3.413333-6.826667 6.826667s3.413333 6.826667 6.826667 6.826667 5.12-1.706667 6.826666-3.413334c1.706667-1.706667 1.706667-5.12 0-6.826666-1.706667-1.706667-3.413333-3.413333-6.826666-3.413334z m175.786666-63.146666l-39.253333 61.44h39.253333v10.24h-54.613333v-6.826667l39.253333-63.146667h-35.84v-8.533333h51.2v6.826667z m0 0" fill="#E09C9C" p-id="6373"></path><path d="M1061.546667 22.186667l-23.893334 39.253333h23.893334V68.266667h-34.133334v-3.413334l23.893334-39.253333h-22.186667V17.066667h32.426667v5.12z m0 0" fill="#D38080" p-id="6374"></path><path d="M104.106667 576.853333c-5.12-5.12-13.653333-8.533333-22.186667-8.533333 0 0 11.946667 0 22.186667-6.826667 5.12-5.12 10.24-13.653333 10.24-23.893333 0 0 0 15.36 10.24 23.893333 5.12 5.12 11.946667 6.826667 22.186666 6.826667 0 0-11.946667 0-20.48 6.826667-5.12 5.12-10.24 13.653333-10.24 23.893333-3.413333 1.706667-1.706667-11.946667-11.946666-22.186667m964.266666 10.24c-1.706667-1.706667-6.826667-5.12-11.946666-5.12 0 0 6.826667 0 11.946666-3.413333 3.413333-1.706667 5.12-6.826667 5.12-11.946667 0 0 0 8.533333 5.12 11.946667 1.706667 1.706667 6.826667 3.413333 11.946667 3.413333 0 0-6.826667 0-10.24 3.413334-3.413333 1.706667-5.12 6.826667-5.12 11.946666-1.706667 1.706667-1.706667-5.12-6.826667-10.24m-892.586666-69.973333c-3.413333-3.413333-10.24-6.826667-17.066667-6.826667 0 0 10.24 0 17.066667-5.12 5.12-3.413333 8.533333-10.24 8.533333-18.773333 0 0 0 11.946667 8.533333 18.773333 3.413333 3.413333 8.533333 5.12 17.066667 5.12 0 0-8.533333 0-17.066667 5.12-5.12 3.413333-8.533333 10.24-8.533333 18.773334-1.706667 1.706667-1.706667-10.24-8.533333-17.066667" fill="#E09C9C" p-id="6375"></path><path d="M382.293333 375.466667c-8.533333 6.826667-17.066667 11.946667-27.306666 15.36-5.12 1.706667-10.24 1.706667-15.36 1.706666-30.72 0-56.32-20.48-63.146667-49.493333-6.826667-29.013333 6.826667-58.026667 32.426667-71.68-8.533333-42.666667 17.066667-85.333333 59.733333-93.866667 5.12-1.706667 11.946667-1.706667 17.066667-1.706666 22.186667 0 42.666667 8.533333 56.32 23.893333 3.413333-1.706667 5.12-1.706667 8.533333-1.706667 5.12-1.706667 10.24-1.706667 15.36-1.706666 30.72 0 56.32 20.48 63.146667 49.493333 6.826667 32.426667-10.24 64.853333-40.96 75.093333l42.666666 187.733334-148.48-133.12z m0 0" fill="#FFFFFF" p-id="6376"></path><path d="M387.413333 177.493333c22.186667 0 42.666667 8.533333 56.32 25.6 3.413333-1.706667 5.12-1.706667 8.533334-3.413333 5.12-1.706667 8.533333-1.706667 13.653333-1.706667 27.306667 0 52.906667 18.773333 59.733333 47.786667 6.826667 32.426667-11.946667 63.146667-42.666666 73.386667l40.96 180.906666-143.36-128c-6.826667 6.826667-17.066667 13.653333-29.013334 15.36-5.12 1.706667-8.533333 1.706667-13.653333 1.706667-27.306667 0-52.906667-18.773333-59.733333-47.786667-6.826667-29.013333 8.533333-56.32 32.426666-69.973333v-1.706667c-8.533333-40.96 17.066667-81.92 58.026667-90.453333 6.826667-1.706667 11.946667-1.706667 18.773333-1.706667m0-5.12c-5.12 0-11.946667 0-17.066666 1.706667-42.666667 10.24-69.973333 52.906667-61.44 95.573333-25.6 15.36-39.253333 44.373333-32.426667 73.386667 6.826667 30.72 34.133333 52.906667 64.853333 52.906667 5.12 0 10.24 0 15.36-1.706667 10.24-1.706667 18.773333-6.826667 27.306667-13.653333l139.946667 124.586666 11.946666 11.946667-5.12-17.066667L491.52 324.266667c30.72-11.946667 47.786667-44.373333 40.96-76.8-6.826667-30.72-34.133333-52.906667-64.853333-52.906667-5.12 0-10.24 0-15.36 1.706667-1.706667 0-5.12 1.706667-6.826667 1.706666-17.066667-17.066667-37.546667-25.6-58.026667-25.6z m0 0" fill="#A9B0B5" p-id="6377"></path><path d="M667.306667 363.52c-6.826667-1.706667-11.946667-6.826667-15.36-11.946667-13.653333-17.066667-11.946667-42.666667 6.826666-58.026666 6.826667-5.12 17.066667-8.533333 25.6-8.533334s17.066667 3.413333 23.893334 8.533334c8.533333-6.826667 18.773333-10.24 30.72-10.24 15.36 0 29.013333 6.826667 39.253333 18.773333 11.946667 13.653333 13.653333 32.426667 8.533333 47.786667l3.413334 3.413333c13.653333 17.066667 11.946667 42.666667-6.826667 58.026667-6.826667 5.12-17.066667 8.533333-25.6 8.533333-10.24 0-20.48-5.12-29.013333-11.946667l-93.866667 75.093334 32.426667-119.466667z m0 0" fill="#FFFFFF" p-id="6378"></path><path d="M737.28 285.013333c13.653333 0 27.306667 6.826667 37.546667 17.066667 11.946667 13.653333 13.653333 32.426667 6.826666 47.786667l5.12 5.12c13.653333 17.066667 10.24 40.96-5.12 54.613333-6.826667 5.12-15.36 8.533333-23.893333 8.533333-10.24 0-20.48-5.12-27.306667-11.946666L636.586667 477.866667l32.426666-114.346667c-6.826667-1.706667-11.946667-6.826667-17.066666-11.946667-13.653333-17.066667-10.24-40.96 5.12-54.613333 6.826667-5.12 15.36-8.533333 23.893333-8.533333 8.533333 0 17.066667 3.413333 23.893333 8.533333h1.706667c10.24-8.533333 20.48-11.946667 30.72-11.946667m0-5.12v5.12-5.12c-11.946667 0-22.186667 3.413333-30.72 10.24-6.826667-5.12-15.36-6.826667-23.893333-6.826666-10.24 0-18.773333 3.413333-27.306667 10.24-18.773333 15.36-22.186667 42.666667-6.826667 61.44 3.413333 5.12 8.533333 8.533333 13.653334 11.946666L631.466667 476.16l-5.12 13.653333 11.946666-10.24 87.04-69.973333c8.533333 6.826667 17.066667 10.24 29.013334 10.24 10.24 0 18.773333-3.413333 27.306666-10.24 8.533333-6.826667 15.36-17.066667 15.36-29.013333 1.706667-11.946667-1.706667-22.186667-8.533333-32.426667 0-1.706667-1.706667-1.706667-1.706667-3.413333 5.12-17.066667 1.706667-35.84-8.533333-49.493334-10.24-8.533333-23.893333-15.36-40.96-15.36z m0 0" fill="#A9B0B5" p-id="6379"></path><path d="M930.133333 448.853333c0 1.706667 1.706667 1.706667 1.706667 3.413334-1.706667-1.706667-1.706667-3.413333-1.706667-3.413334zM262.826667 848.213333c1.706667 8.533333 5.12 15.36 10.24 20.48 5.12 5.12 13.653333 8.533333 20.48 8.533334h551.253333c8.533333 0 15.36-3.413333 20.48-8.533334 5.12-5.12 10.24-11.946667 10.24-20.48L923.306667 477.866667c1.706667-11.946667-1.706667-22.186667-8.533334-30.72-5.12-5.12-11.946667-8.533333-18.773333-8.533334H242.346667c-6.826667 0-13.653333 3.413333-18.773334 8.533334-6.826667 8.533333-10.24 18.773333-8.533333 30.72l47.786667 370.346666z m469.333333-187.733333c11.946667 0 25.6 1.706667 35.84 6.826667 1.706667 0 1.706667 0 3.413333 1.706666l10.24 5.12c1.706667 1.706667 3.413333 1.706667 5.12 3.413334l3.413334 3.413333 5.12 5.12 3.413333 3.413333c3.413333 5.12 3.413333 10.24 3.413333 15.36 0 5.12-1.706667 8.533333-3.413333 11.946667 0 1.706667-1.706667 3.413333-1.706667 3.413333l-3.413333 3.413334-5.12 5.12-3.413333 3.413333c-1.706667 1.706667-3.413333 1.706667-5.12 3.413333-1.706667 1.706667-5.12 3.413333-8.533334 3.413334-1.706667 0-3.413333 1.706667-5.12 1.706666-22.186667 6.826667-46.08 6.826667-68.266666 0-3.413333-1.706667-5.12-1.706667-8.533334-3.413333-1.706667 0-3.413333-1.706667-5.12-1.706667-3.413333-1.706667-6.826667-3.413333-8.533333-5.12l-3.413333-3.413333-5.12-5.12s0-1.706667-1.706667-1.706667c-1.706667-3.413333-3.413333-6.826667-3.413333-10.24v-3.413333c0-5.12 1.706667-10.24 3.413333-15.36 0-1.706667 1.706667-1.706667 3.413333-3.413333l5.12-5.12 3.413334-3.413334c1.706667-1.706667 3.413333-1.706667 5.12-3.413333l10.24-5.12c1.706667 0 1.706667 0 3.413333-1.706667 3.413333-1.706667 5.12-1.706667 8.533333-1.706666 8.533333-6.826667 18.773333-6.826667 27.306667-6.826667z m-81.92-122.88c3.413333 0 8.533333 3.413333 8.533333 6.826667 0 15.36 10.24 25.6 22.186667 29.013333 3.413333 1.706667 8.533333 1.706667 11.946667 1.706667h25.6c3.413333-1.706667 8.533333 1.706667 8.533333 5.12 1.706667 3.413333-1.706667 8.533333-5.12 8.533333h-27.306667c-6.826667 0-13.653333-1.706667-18.773333-3.413333-20.48-5.12-32.426667-22.186667-32.426667-42.666667 0-1.706667 3.413333-5.12 6.826667-5.12z m11.946667 81.92c15.36 0 27.306667 11.946667 27.306666 27.306667 0 15.36-11.946667 27.306667-27.306666 27.306666-15.36 0-27.306667-11.946667-27.306667-27.306666 0-15.36 11.946667-27.306667 27.306667-27.306667-1.706667 0 0 0 0 0z m-153.6 141.653333c3.413333-1.706667 8.533333-3.413333 11.946666 0 8.533333 5.12 17.066667 10.24 25.6 11.946667 1.706667 0 3.413333 1.706667 5.12 1.706667 23.893333 6.826667 47.786667 1.706667 68.266667-13.653334 3.413333-3.413333 8.533333-1.706667 10.24 0 3.413333 3.413333 1.706667 6.826667 0 10.24-18.773333 15.36-39.253333 20.48-56.32 20.48-8.533333 0-15.36-1.706667-23.893333-3.413333l-8.533334-3.413333c-11.946667-3.413333-22.186667-8.533333-30.72-15.36-3.413333-3.413333-3.413333-6.826667-1.706666-8.533334z m-10.24-114.346666c1.706667 17.066667-11.946667 30.72-27.306667 32.426666-17.066667 1.706667-30.72-11.946667-32.426667-27.306666-1.706667-17.066667 11.946667-30.72 27.306667-32.426667 3.413333 0 8.533333 0 11.946667 1.706667 11.946667 3.413333 20.48 13.653333 20.48 25.6z m-87.04-69.973334h25.6c17.066667 0 35.84-10.24 35.84-32.426666 1.706667-3.413333 5.12-6.826667 10.24-5.12 3.413333 0 5.12 3.413333 5.12 6.826666 0 25.6-20.48 44.373333-49.493334 44.373334h-25.6c-3.413333 1.706667-8.533333-1.706667-8.533333-5.12-1.706667-3.413333 1.706667-8.533333 5.12-8.533334h1.706667z m-17.066667 83.626667c11.946667 0 23.893333 1.706667 34.133333 5.12 22.186667 6.826667 39.253333 22.186667 39.253334 37.546667 0 23.893333-32.426667 42.666667-71.68 42.666666-11.946667 0-23.893333-1.706667-34.133334-5.12-22.186667-6.826667-37.546667-20.48-37.546666-37.546666 0-23.893333 30.72-42.666667 69.973333-42.666667z m522.24-37.546667l18.773333-143.36V477.866667v1.706666l-18.773333 143.36zM252.586667 839.68L204.8 479.573333v-3.413333 3.413333l47.786667 360.106667z m633.173333 17.066667c0 1.706667 0 1.706667-1.706667 3.413333 0 0 0-1.706667 1.706667-3.413333z m-40.96 29.013333h6.826667-6.826667z m0 0" fill="#FFFFFF" p-id="6380"></path><path d="M295.253333 430.08h605.866667v8.533333H295.253333v-8.533333z m114.346667 160.426667h29.013333c29.013333 0 49.493333-18.773333 49.493334-44.373334 0-3.413333-3.413333-8.533333-8.533334-6.826666-3.413333 0-6.826667 3.413333-6.826666 6.826666 0 22.186667-18.773333 32.426667-35.84 32.426667h-25.6c-3.413333 0-6.826667 3.413333-6.826667 6.826667 0 1.706667 1.706667 3.413333 5.12 5.12z m266.24-3.413334c6.826667 1.706667 11.946667 3.413333 18.773333 3.413334h25.6c3.413333-1.706667 5.12-5.12 3.413334-8.533334-1.706667-3.413333-3.413333-5.12-6.826667-5.12h-25.6c-3.413333 0-8.533333 0-11.946667-1.706666-11.946667-3.413333-22.186667-13.653333-22.186666-29.013334 0-3.413333-3.413333-8.533333-8.533334-6.826666-3.413333 0-6.826667 3.413333-6.826666 6.826666 1.706667 18.773333 15.36 35.84 34.133333 40.96z m-208.213333 32.426667c-17.066667 0-30.72 13.653333-30.72 30.72s13.653333 30.72 30.72 30.72 30.72-13.653333 30.72-30.72c0-13.653333-8.533333-23.893333-20.48-29.013333-3.413333-1.706667-6.826667-1.706667-10.24-1.706667z m186.026666 54.613333c13.653333 3.413333 29.013333-5.12 34.133334-18.773333 3.413333-13.653333-5.12-29.013333-18.773334-34.133333-13.653333-3.413333-29.013333 5.12-34.133333 18.773333 0 1.706667-1.706667 5.12-1.706667 6.826667 1.706667 11.946667 10.24 23.893333 20.48 27.306666z m-143.36 104.106667c-1.706667 0-1.706667 0 0 0-3.413333 3.413333-1.706667 8.533333 0 10.24 3.413333 1.706667 6.826667 1.706667 10.24-1.706667 8.533333-5.12 17.066667-10.24 25.6-11.946666 1.706667 0 3.413333-1.706667 5.12-1.706667 23.893333-5.12 47.786667-1.706667 68.266667 13.653333 3.413333 1.706667 5.12 1.706667 8.533333 0s3.413333-6.826667 1.706667-10.24c-18.773333-15.36-39.253333-20.48-56.32-20.48-8.533333 0-15.36 1.706667-23.893333 3.413334-1.706667 0-5.12 1.706667-6.826667 1.706666-13.653333 5.12-23.893333 10.24-32.426667 17.066667z m0 0" fill="#A9B0B5" p-id="6381"></path><path d="M798.72 848.213333l114.346667-34.133333s25.6 81.92 49.493333 90.453333c23.893333 10.24 39.253333-17.066667 39.253333-17.066666l-121.173333 52.906666s-17.066667 40.96-37.546667 3.413334c-17.066667-27.306667-44.373333-95.573333-44.373333-95.573334z m0 0" fill="#FFFFFF" p-id="6382"></path><path d="M1001.813333 889.173333l-121.173333 52.906667s-8.533333 20.48-18.773333 18.773333c0 0 10.24 3.413333 40.96-10.24 30.72-13.653333 73.386667-34.133333 73.386666-34.133333s5.12-1.706667 13.653334-10.24c5.12-6.826667 11.946667-17.066667 11.946666-17.066667z m0 0" fill="#848484" p-id="6383"></path><path d="M257.706667 431.786667c-1.706667 0-3.413333-1.706667-3.413334-1.706667v-35.84c0-1.706667 1.706667-1.706667 1.706667-1.706667h1.706667c1.706667 0 1.706667 1.706667 1.706666 1.706667v35.84c1.706667 0 0 1.706667-1.706666 1.706667z m-49.493334 52.906666c-1.706667 0-1.706667 0-1.706666-1.706666V477.866667c0-1.706667 0-1.706667 1.706666-1.706667s1.706667 0 1.706667 1.706667l-1.706667 6.826666c1.706667 0 1.706667 0 0 0z m0 0" fill="#A9B0B5" p-id="6384"></path></svg>